<svg width="512" height="512" version="1.1" xmlns="http://www.w3.org/2000/svg" desc="Created with imagetracer.js version 1.2.6" ><path fill="rgb(47,45,0)" stroke="rgb(47,45,0)" stroke-width="1" opacity="1" d="M 312.5 73 L 334.5 73 L 350 84.5 Q 358 91.4 362 101 Q 364.7 99.9 364 102.5 L 377 126.5 L 377 130.5 L 380 135.5 L 382 145.5 L 384 148.5 L 384 155.5 Q 387.4 158.1 386 165.5 L 390 175.5 L 391 189.5 L 393 193.5 L 393 206.5 L 395 209.5 L 395 233.5 Q 398.6 236.4 397 244.5 L 401 249.5 L 401 264.5 L 403 267.5 L 403 299.5 L 404 300.5 L 404 321 Q 406.7 322.1 406 319.5 Q 407 317 411.5 318 L 416 323.5 L 416 332.5 L 413 339.5 L 413 349.5 Q 409.4 352.4 411 360.5 L 406 375 Q 403.3 373.9 404 376.5 Q 398.5 389.5 388.5 398 Q 382.3 398.8 379.5 403 L 373 404 L 372.5 406 L 263 406 Q 264.1 403.3 261.5 404 L 260.5 403 L 248.5 403 Q 243.3 398.7 234.5 398 L 225 393 L 222.5 389 Q 220.3 389.8 221 387.5 L 216 385 L 212 378 L 207 376 Q 208.1 373.3 205.5 374 L 203 373 L 203 371 L 201 371 Q 202.1 368.3 199.5 369 L 193 363.5 L 189 358.5 L 185 353.5 L 185 351 Q 182.3 352.1 183 349.5 L 176 336.5 L 176 326 L 86.5 325 L 83.5 323 L 76.5 323 L 71 321 Q 72.1 318.3 69.5 319 L 65 317 Q 66.3 314 62.5 315 L 59 313 Q 60.1 310.3 57.5 311 L 55 310 L 51 302 Q 48.3 303.1 49 300.5 L 46 295 Q 43.3 296.1 44 293.5 L 40 287.5 L 40 281.5 L 44 276 L 47 276 L 47 269.5 L 51.5 265 Q 56.5 266 57.5 263 L 66.5 263 L 69.5 260 L 76.5 260 L 78.5 258 Q 85 259.5 86.5 256 L 98.5 256 L 100.5 254 Q 107.8 255.8 109.5 252 L 120.5 252 L 122.5 250 L 134.5 250 L 140.5 247 L 154 235.5 L 159 226 Q 161.7 227.1 161 224.5 L 170 209.5 L 170 205.5 L 174 200.5 L 176 190.5 Q 182.2 183.7 185 173.5 L 189 169.5 L 191 162 L 194 160.5 L 195 153.5 L 199 146.5 L 199 139.5 L 201 137.5 L 201 124.5 L 203 122.5 L 203 113.5 Q 206.7 111.6 207 106.5 L 218.5 95 L 220.5 95 L 225.5 91 L 228.5 91 L 231.5 88 L 241.5 86 L 247.5 82 L 254.5 82 L 261.5 77 L 281.5 77 L 283.5 75 L 310.5 75 L 312.5 73 Z M 320 86 L 317 88 L 289 88 L 286 90 L 267 90 L 259 95 L 249 97 L 231 105 L 229 108 L 226 109 L 216 121 L 216 129 L 214 132 L 214 144 Q 211 146 212 152 L 208 159 L 207 165 L 203 174 L 194 188 L 193 192 Q 194 195 191 194 L 178 223 L 180 226 L 180 234 L 182 234 L 182 248 L 183 249 L 183 261 L 185 262 L 185 280 L 187 280 L 187 315 L 189 317 L 189 331 L 191 333 Q 190 336 193 335 Q 195 336 194 341 L 201 351 L 214 361 L 215 364 L 232 379 Q 239 381 243 386 L 248 386 L 255 390 L 268 390 L 270 392 L 367 392 L 369 390 L 374 390 L 378 388 L 386 380 L 386 378 L 391 372 Q 390 367 393 367 L 393 363 L 395 361 L 395 357 L 397 355 L 397 346 L 399 344 L 399 333 L 401 330 L 400 330 L 393 329 L 391 326 L 390 274 L 388 271 L 388 256 L 386 255 L 384 252 L 384 243 L 382 241 L 382 213 L 380 210 L 380 198 L 378 196 L 377 179 L 373 169 L 373 163 Q 370 160 371 154 L 369 152 L 369 146 L 367 144 L 367 139 L 364 135 Q 365 131 363 132 Q 360 131 361 127 L 357 122 L 350 107 L 344 99 L 339 96 L 337 92 Q 334 93 335 91 L 328 86 L 320 86 Z M 177 225 L 168 241 L 159 250 Q 156 249 157 252 L 152 257 Q 145 258 143 262 L 128 263 L 125 265 L 117 265 L 114 267 Q 107 266 105 269 L 94 269 L 91 271 Q 85 270 83 273 L 77 273 L 73 275 L 73 276 Q 77 274 76 278 L 78 279 L 184 279 L 184 263 L 182 262 L 182 250 L 181 249 L 181 237 L 179 236 L 179 225 L 177 225 Z M 59 290 L 59 292 L 65 296 L 67 300 L 78 307 L 83 309 L 91 309 L 93 311 L 185 312 L 186 313 L 186 292 L 185 292 L 74 292 L 71 290 L 59 290 Z " /><path fill="rgb(47,45,0)" stroke="rgb(47,45,0)" stroke-width="1" opacity="1" d="M 250.5 116 L 254.5 116 L 259 120.5 L 259 195.5 L 257 198.5 L 257 222.5 L 254.5 226 L 248.5 227 L 246 226 L 244 222.5 L 244 194.5 L 246 190.5 L 246 120.5 L 250.5 116 Z " /><path fill="rgb(255,255,255)" stroke="rgb(255,255,255)" stroke-width="1" opacity="1" d="M 0 0 L 512 0 L 512 512 L 0 512 L 0 0 Z M 313 73 L 311 75 L 284 75 L 282 77 L 262 77 L 255 82 L 248 82 L 242 86 L 232 88 L 229 91 L 226 91 L 221 95 L 219 95 L 207 107 Q 207 112 203 114 L 203 123 L 201 125 L 201 138 L 199 140 L 199 147 L 195 154 L 194 161 L 191 162 L 189 170 L 185 174 Q 182 184 176 191 L 174 201 L 170 206 L 170 210 L 161 225 Q 162 227 159 226 L 154 236 L 141 247 L 135 250 L 123 250 L 121 252 L 110 252 Q 108 256 101 254 L 99 256 L 87 256 Q 85 260 79 258 L 77 260 L 70 260 L 67 263 L 58 263 Q 57 266 52 265 L 47 270 L 47 276 L 44 276 L 40 282 L 40 288 L 44 294 Q 43 296 46 295 L 49 301 Q 48 303 51 302 L 55 310 L 58 311 Q 60 310 59 313 L 63 315 Q 66 314 65 317 L 70 319 Q 72 318 71 321 L 77 323 L 84 323 L 87 325 L 176 326 L 176 337 L 183 350 Q 182 352 185 351 L 185 354 L 189 359 L 193 364 L 200 369 Q 202 368 201 371 L 203 371 L 203 373 L 206 374 Q 208 373 207 376 L 212 378 L 216 385 L 221 388 Q 220 390 223 389 L 225 393 L 235 398 Q 243 399 249 403 L 261 403 L 262 404 Q 264 403 263 406 L 373 406 L 373 404 L 380 403 Q 382 399 389 398 Q 399 390 404 377 Q 403 374 406 375 L 411 361 Q 409 352 413 350 L 413 340 L 416 333 L 416 324 L 412 318 Q 407 317 406 320 Q 407 322 404 321 L 404 301 L 403 300 L 403 268 L 401 265 L 401 250 L 397 245 Q 399 236 395 234 L 395 210 L 393 207 L 393 194 L 391 190 L 390 176 L 386 166 Q 387 158 384 156 L 384 149 L 382 146 L 380 136 L 377 131 L 377 127 L 364 103 Q 365 100 362 101 Q 358 91 350 85 L 335 73 L 313 73 Z " /><path fill="rgb(255,255,255)" stroke="rgb(255,255,255)" stroke-width="1" opacity="1" d="M 319.5 86 L 327.5 86 L 335 90.5 Q 334.3 92.8 336.5 92 L 339 96 L 344 98.5 L 350 106.5 L 357 121.5 L 361 126.5 Q 360 131 362.5 132 Q 365.1 131.2 364 134.5 L 367 138.5 L 367 143.5 L 369 145.5 L 369 151.5 L 371 153.5 Q 369.8 160.2 373 162.5 L 373 168.5 L 377 178.5 L 378 195.5 L 380 197.5 L 380 209.5 L 382 212.5 L 382 240.5 L 384 242.5 L 384 251.5 L 386 255 L 388 255.5 L 388 270.5 L 390 273.5 L 391 325.5 L 393 329 L 399.5 330 L 401 329.5 L 399 332.5 L 399 343.5 L 397 345.5 L 397 354.5 L 395 356.5 L 395 360.5 L 393 362.5 L 393 366.5 Q 390.3 367.3 391 371.5 L 386 377.5 L 386 379.5 L 377.5 388 L 373.5 390 L 368.5 390 L 366.5 392 L 269.5 392 L 267.5 390 L 254.5 390 L 247.5 386 L 242.5 386 Q 238.5 381 231.5 379 L 215 363.5 L 213.5 361 L 201 350.5 L 194 340.5 Q 195 336 192.5 335 Q 189.9 335.8 191 332.5 L 189 330.5 L 189 316.5 L 187 314.5 L 187 280 L 185 279.5 L 185 261.5 L 183 260.5 L 183 248.5 L 182 247.5 L 182 234 L 180 233.5 L 180 225.5 L 179 225.5 L 179 235.5 L 181 236.5 L 181 248.5 L 182 249.5 L 182 262 L 184 262.5 L 184 279 L 77.5 279 L 76 277.5 Q 76.9 274.5 72.5 276 L 72.5 275 L 76.5 273 L 82.5 273 Q 84.5 270 90.5 271 L 93.5 269 L 104.5 269 Q 107.2 266.2 113.5 267 L 116.5 265 L 124.5 265 L 127.5 263 L 142.5 262 Q 145.3 257.8 151.5 257 L 157 251.5 Q 156.3 249.3 158.5 250 L 168 240.5 L 177 225 L 179 224.5 L 178 222.5 L 191 194 Q 194 195.3 193 191.5 L 194 187.5 L 203 173.5 L 207 164.5 L 208 158.5 L 212 151.5 Q 211 145.5 214 143.5 L 214 131.5 L 216 128.5 L 216 120.5 L 225.5 109 L 229 108 L 230.5 105 L 248.5 97 L 258.5 95 L 266.5 90 L 285.5 90 L 288.5 88 L 316.5 88 L 319.5 86 Z M 251 116 L 246 121 L 246 191 L 244 195 L 244 223 L 246 226 L 249 227 L 255 226 L 257 223 L 257 199 L 259 196 L 259 121 L 255 116 L 251 116 Z " /><path fill="rgb(255,255,255)" stroke="rgb(255,255,255)" stroke-width="1" opacity="1" d="M 59 290 L 70.5 290 L 73.5 292 L 184.5 292 L 186 291.5 L 185.5 313 L 184.5 312 L 92.5 311 L 90.5 309 L 82.5 309 L 77.5 307 L 67 299.5 L 64.5 296 L 59 291.5 L 59 290 Z " /></svg>