<svg width="500" height="500" version="1.1" xmlns="http://www.w3.org/2000/svg" desc="Created with imagetracer.js version 1.2.6" ><path fill="rgb(6,6,5)" stroke="rgb(6,6,5)" stroke-width="1" opacity="0.9764705882352941" d="M 305.5 71 L 326.5 71 L 342 82.5 L 350 91.5 L 361 111.5 L 364 114.5 L 375 145.5 Q 373.8 152.2 377 154.5 L 377 161.5 L 381 171.5 L 382 185.5 L 384 188.5 L 384 201.5 L 386 204.5 L 386 228.5 Q 390 230.5 388 238.5 L 392 243.5 L 392 258.5 L 394 261.5 L 394 292.5 L 395 293.5 L 395.5 313 Q 396.5 310 401.5 311 Q 408.3 313.3 406 324.5 L 403 331.5 L 403 341.5 Q 399.4 344.4 401 352.5 L 397 363.5 L 389 378.5 L 379.5 389 Q 373.3 389.8 370.5 394 Q 365.2 393.2 363.5 396 L 257.5 396 L 254.5 394 L 242.5 394 L 220 384 L 217.5 380 Q 215.3 380.8 216 378.5 L 211 376 L 207 369 L 202 367 Q 203.1 364.3 200.5 365 L 198 364 L 198 362 L 196 362 Q 197.1 359.3 194.5 360 L 187 353.5 L 185 350.5 L 181 345.5 L 181 343 Q 178.3 344.1 179 341.5 L 172 328.5 L 172 318 L 84.5 317 Q 81.9 313.6 74.5 315 L 63 310 Q 64.1 307.3 61.5 308 L 58 306 Q 59.1 303.3 56.5 304 L 54 303 L 50 295 Q 47.3 296.1 48 293.5 L 45 288 Q 42.3 289.1 43 286.5 L 39 280.5 L 39 274.5 L 43.5 270 L 46 270 Q 44.3 261.1 50.5 259 Q 55.5 260 56.5 257 L 64.5 257 L 67.5 254 L 74.5 254 L 76.5 252 Q 83 253.5 84.5 250 L 96.5 250 L 98.5 248 Q 105 249.5 106.5 246 L 117.5 246 L 119.5 244 L 131.5 244 L 137.5 241 L 150 229.5 L 155 221 Q 157.7 222.1 157 219.5 L 166 204.5 L 166 200.5 L 170 195.5 L 170 191.5 L 172 189.5 L 174 182.5 L 177 179.5 L 181 169.5 L 185 165.5 L 185 162.5 L 190 153.5 L 190 149.5 L 194 143.5 Q 192.3 136.3 196 134.5 L 196 121.5 L 198 119.5 L 198 110.5 L 213.5 93 L 215.5 93 L 220.5 89 L 223.5 89 L 226.5 86 Q 230.8 86.8 231.5 84 L 235.5 84 L 241.5 80 L 248.5 80 L 255.5 75 L 274.5 75 L 276.5 73 L 303.5 73 L 305.5 71 Z M 313 84 L 310 86 L 282 86 L 279 88 L 261 88 L 253 93 L 243 95 L 221 106 L 211 118 Q 213 126 209 129 L 209 141 Q 206 142 207 148 L 203 155 L 202 161 L 198 170 L 189 184 L 189 187 L 183 197 L 183 200 L 174 218 L 176 221 L 176 229 L 178 229 L 178 242 L 179 243 L 179 255 L 181 256 L 181 273 L 183 273 L 183 308 L 185 310 L 185 323 L 189 329 L 189 333 L 196 343 L 227 370 L 237 377 L 242 377 L 249 381 L 262 381 L 264 383 L 358 383 L 360 381 L 365 381 L 369 379 L 377 371 L 377 369 L 382 363 L 384 355 L 386 353 L 386 349 L 388 347 L 388 338 L 390 336 L 390 325 L 392 322 L 391 322 L 384 321 L 382 318 L 381 268 L 379 265 L 379 250 L 377 249 L 375 246 L 375 237 L 373 235 L 373 208 L 371 205 L 371 193 L 369 191 L 368 175 L 364 165 L 362 150 Q 359 148 360 143 L 358 141 L 358 136 L 353 128 L 353 124 L 336 97 L 331 94 L 329 90 Q 326 91 327 89 L 320 84 L 313 84 Z M 173 220 L 164 235 L 155 244 Q 152 243 153 246 L 140 256 L 125 257 L 122 259 L 114 259 L 103 263 L 92 263 L 81 267 L 75 267 L 70 270 Q 74 269 76 272 L 180 272 L 180 257 L 178 256 L 178 244 L 177 243 L 177 231 L 175 230 L 175 220 L 173 220 Z M 58 283 L 65 293 L 76 300 L 81 302 L 89 302 L 91 304 L 181 305 L 182 306 L 182 285 L 181 285 L 72 285 L 69 283 L 58 283 Z " /><path fill="rgb(6,6,5)" stroke="rgb(6,6,5)" stroke-width="1" opacity="0.9764705882352941" d="M 244.5 113 L 248.5 113 L 253 117.5 L 253 190.5 L 251 193.5 L 251 217.5 L 248.5 221 L 242.5 222 L 240 221 L 238 217.5 L 238 189.5 L 240 186.5 L 240 117.5 L 244.5 113 Z " /><path fill="rgb(0,0,0)" stroke="rgb(0,0,0)" stroke-width="1" opacity="0" d="M 0 0 L 500 0 L 500 500 L 0 500 L 0 0 Z M 306 70 L 303 72 L 276 72 L 274 74 L 255 74 L 248 79 L 241 79 L 235 83 L 231 83 Q 230 86 226 85 L 210 95 L 197 110 L 197 119 L 195 121 L 195 134 Q 191 135 193 143 L 189 149 L 189 153 L 184 162 L 184 165 L 180 169 Q 178 179 171 186 L 169 195 L 165 200 L 165 204 L 157 218 Q 158 220 155 219 L 154 223 L 147 232 L 138 240 L 131 243 L 120 243 Q 116 247 107 245 Q 104 248 98 247 L 96 249 L 85 249 L 82 251 Q 76 250 74 253 L 67 253 L 64 256 L 56 256 L 54 258 L 48 259 L 47 262 L 45 263 L 45 269 Q 40 269 38 274 L 38 282 L 55 304 Q 57 303 56 306 L 60 308 Q 62 307 61 310 L 75 316 Q 82 315 85 318 L 108 318 L 109 319 L 111 318 L 142 319 L 143 320 L 144 319 L 171 319 L 171 329 L 178 342 Q 177 345 180 344 L 185 354 L 192 358 L 194 362 L 205 369 L 210 376 L 214 378 Q 216 377 215 380 L 218 381 L 219 384 L 232 391 L 235 391 L 243 395 L 255 395 L 258 397 L 364 397 L 378 391 L 380 391 L 390 379 L 399 362 L 400 356 L 402 354 L 402 345 L 404 342 L 404 332 L 407 325 Q 409 317 406 314 Q 404 308 396 310 L 396 294 L 395 293 L 395 261 L 393 258 L 393 243 L 392 240 L 389 239 L 389 230 L 387 229 L 387 204 L 385 201 L 385 188 L 383 185 L 382 171 L 378 161 L 378 154 L 376 151 L 376 145 Q 373 143 374 138 L 365 114 L 362 111 L 354 96 L 342 81 L 328 70 L 306 70 Z " /><path fill="rgb(188,188,188)" stroke="rgb(188,188,188)" stroke-width="1" opacity="0.21568627450980393" d="M 305.5 70 L 326.5 70 Q 336.4 74.6 343 82.5 L 351 91.5 L 362 111.5 L 365 114.5 L 376 145.5 Q 374.8 152.2 378 154.5 L 378 161.5 L 382 171.5 L 383 185.5 L 385 188.5 L 385 201.5 L 387 204.5 L 387 228.5 Q 391 230.5 389 238.5 L 393 243.5 L 393 258.5 L 395 261.5 L 395 292.5 L 396 293.5 L 396.5 311 L 401.5 310 L 407 315.5 L 407 323.5 L 406 323.5 Q 408 313 401.5 311 Q 396.5 310 395.5 313 L 395 293.5 L 394 292.5 L 394 261.5 L 392 258.5 L 392 243.5 L 388 238.5 Q 390 230.5 386 228.5 L 386 204.5 L 384 201.5 L 384 188.5 L 382 185.5 L 381 171.5 L 377 161.5 L 377 154.5 Q 373.8 152.2 375 145.5 L 364 114.5 L 361 111.5 L 350 91.5 L 337.5 78 L 326.5 71 L 305.5 71 L 303.5 73 L 276.5 73 L 274.5 75 L 255.5 75 L 248.5 80 L 241.5 80 L 235.5 84 L 231.5 84 L 223.5 89 L 220.5 89 L 215.5 93 L 213.5 93 L 202 104.5 L 198 110.5 L 198 119.5 L 196 121.5 L 196 134.5 L 194 136.5 L 194 143.5 L 190 149.5 L 189 156.5 L 172 186.5 Q 172.8 190.8 170 191.5 L 170 195.5 L 166 200.5 L 166 204.5 L 157 221 Q 154.3 219.9 155 222.5 L 142.5 237 L 131.5 244 L 119.5 244 L 117.5 246 L 106.5 246 L 104.5 248 Q 98 246.5 96.5 250 L 84.5 250 L 82.5 252 Q 76 250.5 74.5 254 L 67.5 254 L 64.5 257 L 56.5 257 Q 55.5 260 50.5 259 L 46 263.5 L 46 270 L 43.5 270 Q 37.5 271.5 39 280.5 L 43 288 Q 45.7 286.9 45 289.5 L 48 295 Q 50.7 293.9 50 296.5 L 54 303 L 58 304 Q 56.9 306.7 59.5 306 L 63 308 Q 61.9 310.7 64.5 310 L 74 314.5 L 72.5 315 L 63.5 311 L 53 302.5 L 40 284.5 L 38 280.5 L 38 274.5 L 45 269 L 45 263.5 L 50.5 258 Q 55.5 259 56.5 256 L 64.5 256 L 67.5 253 L 74.5 253 L 76.5 251 Q 83 252.5 84.5 249 L 96.5 249 L 98.5 247 Q 105 248.5 106.5 245 L 117.5 245 L 119.5 243 L 131.5 243 L 137.5 240 L 149 229.5 L 161 212.5 L 165 204.5 L 165 200.5 L 169 195.5 L 169 191.5 Q 171.8 190.7 171 186.5 L 188 156.5 L 189 149.5 L 193 143.5 L 193 136.5 L 195 134.5 L 195 121.5 L 197 119.5 L 197 110.5 Q 203.5 99.5 213.5 92 L 215.5 92 L 220.5 88 L 223.5 88 L 226.5 85 Q 230.8 85.8 231.5 83 L 235.5 83 L 241.5 79 Q 248.3 80.8 250 77.5 Q 249.3 75.3 251.5 76 L 254.5 74 L 274.5 74 L 276.5 72 L 303.5 72 L 305.5 70 Z " /><path fill="rgb(188,188,188)" stroke="rgb(188,188,188)" stroke-width="1" opacity="0.21568627450980393" d="M 312.5 84 L 319.5 84 L 327 88.5 Q 326.3 90.8 328.5 90 L 331 94 L 336 96.5 L 344 107.5 L 341 105.5 L 335 96 L 330 93.5 L 328.5 91 L 326 89.5 L 324.5 87 L 319.5 85 L 312.5 85 L 309.5 87 L 281.5 87 L 281.5 86 L 309.5 86 L 312.5 84 Z " /><path fill="rgb(188,188,188)" stroke="rgb(188,188,188)" stroke-width="1" opacity="0.21568627450980393" d="M 260.5 88 L 278 88.5 L 260.5 89 L 253.5 93 L 253.5 92 L 260.5 88 Z " /><path fill="rgb(188,188,188)" stroke="rgb(188,188,188)" stroke-width="1" opacity="0.21568627450980393" d="M 248.5 93 L 252 93.5 L 246.5 95 L 246.5 94 L 248.5 93 Z " /><path fill="rgb(188,188,188)" stroke="rgb(188,188,188)" stroke-width="1" opacity="0.21568627450980393" d="M 242.5 95 L 245 95.5 L 236.5 99 L 236.5 98 L 242.5 95 Z " /><path fill="rgb(188,188,188)" stroke="rgb(188,188,188)" stroke-width="1" opacity="0.21568627450980393" d="M 233.5 99 L 235 99.5 L 220.5 107 L 216 111.5 L 212 117.5 Q 213.6 125.6 210 128.5 L 210 140.5 L 204 154.5 L 203 160.5 L 196 175.5 L 190 183.5 L 190 186.5 L 184 196.5 L 184 199.5 L 175 217.5 Q 178.4 220.1 177 227.5 L 179 229.5 L 180 253.5 L 182 255.5 L 182 270.5 L 184 273.5 L 184 307.5 L 186 309.5 L 186 322.5 L 190 328.5 L 190 332.5 L 197 343 L 236.5 376 L 241.5 376 L 248.5 380 L 261.5 380 L 263.5 382 L 282 382.5 L 263.5 383 L 261.5 381 L 248.5 381 L 241.5 377 L 236.5 377 L 226.5 370 L 196 342.5 L 189 332.5 L 189 328.5 L 185 322.5 L 185 309.5 L 183 307.5 L 183 273 L 181 272.5 L 181 255.5 L 179 254.5 L 179 242.5 L 178 241.5 L 178 229 L 176 228.5 L 176 220.5 L 174 217.5 L 183 199.5 L 183 196.5 L 189 186.5 L 189 183.5 L 198 169.5 L 202 160.5 L 203 154.5 L 207 147.5 Q 206.2 142.2 209 140.5 L 209 128.5 Q 212.6 125.6 211 117.5 L 220.5 106 L 233.5 99 Z " /><path fill="rgb(188,188,188)" stroke="rgb(188,188,188)" stroke-width="1" opacity="0.21568627450980393" d="M 344.5 109 L 353 123.5 L 353 127.5 L 358 135.5 L 358 140.5 L 360 142.5 L 360 147.5 L 362 149.5 Q 360.8 156.2 364 158.5 L 364 164.5 L 368 174.5 L 369 190.5 L 371 192.5 L 371 204.5 L 373 207.5 L 373 234.5 L 375 236.5 L 375 245.5 L 377 249 L 379 249.5 L 379 264.5 L 381 267.5 L 381 296.5 L 380 296.5 L 380 267.5 L 378 264.5 L 378 250.5 L 374 245.5 L 374 236.5 L 372 234.5 L 372 207.5 L 370 204.5 L 370 192.5 L 368 190.5 L 367 174.5 L 363 164.5 L 363 158.5 L 361 155.5 L 361 149.5 Q 357.8 148.3 359 142.5 L 357 140.5 L 357 135.5 L 352 127.5 L 352 123.5 L 344 110.5 L 344.5 109 Z " /><path fill="rgb(188,188,188)" stroke="rgb(188,188,188)" stroke-width="1" opacity="0.21568627450980393" d="M 244.5 112 L 248.5 112 L 253 115 L 254 117.5 L 254 190.5 L 252 193.5 L 252 217.5 L 248.5 222 L 247 221.5 L 250 219.5 L 251 217.5 L 251 193.5 L 253 190.5 L 253 117.5 L 248.5 113 L 244.5 113 L 240 117.5 L 240 186.5 L 238 189.5 L 238 217.5 L 240 221 L 242 221.5 L 240.5 222 L 237 217.5 L 237 189.5 L 239 186.5 L 239 117.5 L 244.5 112 Z " /><path fill="rgb(188,188,188)" stroke="rgb(188,188,188)" stroke-width="1" opacity="0.21568627450980393" d="M 243.5 222 L 246 222.5 L 243.5 223 L 243.5 222 Z " /><path fill="rgb(188,188,188)" stroke="rgb(188,188,188)" stroke-width="1" opacity="0.21568627450980393" d="M 381.5 298 L 382 317.5 L 384 321 L 386 321.5 L 384.5 322 L 381 317.5 L 381.5 298 Z " /><path fill="rgb(188,188,188)" stroke="rgb(188,188,188)" stroke-width="1" opacity="0.21568627450980393" d="M 75.5 315 L 82 315.5 L 75.5 316 L 75.5 315 Z " /><path fill="rgb(188,188,188)" stroke="rgb(188,188,188)" stroke-width="1" opacity="0.21568627450980393" d="M 85.5 317 L 124 317.5 L 85.5 318 L 85.5 317 Z " /><path fill="rgb(188,188,188)" stroke="rgb(188,188,188)" stroke-width="1" opacity="0.21568627450980393" d="M 126.5 318 L 171.5 318 L 172 318.5 L 172 328.5 L 174 331.5 L 173 331.5 L 171 328.5 L 171 319 L 126.5 319 L 126.5 318 Z " /><path fill="rgb(188,188,188)" stroke="rgb(188,188,188)" stroke-width="1" opacity="0.21568627450980393" d="M 391.5 321 L 392 322.5 L 390 324.5 L 390 335.5 L 388 337.5 L 388 346.5 L 386 348.5 L 386 352.5 L 384 354.5 L 382 362.5 L 377 368.5 L 377 370.5 L 368.5 379 L 364.5 381 L 359.5 381 L 357.5 383 L 283.5 383 L 283.5 382 L 357.5 382 L 359.5 380 L 364.5 380 L 368.5 378 L 376 370.5 Q 376.5 364.5 381 362.5 L 381 359.5 L 385 352.5 L 385 348.5 L 387 346.5 L 387 337.5 L 389 335.5 L 389 324.5 L 390 323.5 L 388 322.5 L 391.5 321 Z " /><path fill="rgb(188,188,188)" stroke="rgb(188,188,188)" stroke-width="1" opacity="0.21568627450980393" d="M 405.5 325 L 406 328.5 L 404 331.5 L 404 341.5 Q 400.4 344.4 402 352.5 L 398 363.5 L 390 378.5 L 379.5 390 L 378 389.5 L 381 387.5 L 389 378.5 L 399 358.5 Q 398.4 353.9 401 352.5 L 401 344.5 L 403 341.5 L 403 331.5 L 405.5 325 Z " /><path fill="rgb(188,188,188)" stroke="rgb(188,188,188)" stroke-width="1" opacity="0.21568627450980393" d="M 174.5 333 L 176 336.5 L 175 336.5 L 174.5 333 Z " /><path fill="rgb(188,188,188)" stroke="rgb(188,188,188)" stroke-width="1" opacity="0.21568627450980393" d="M 176.5 338 L 179 343 Q 182 341.8 181 345.5 L 185 352 Q 187.7 350.9 187 353.5 L 196 360 L 196 362 L 198 362 Q 196.9 364.7 199.5 364 L 202 365 Q 200.9 367.7 203.5 367 L 207 369 L 211 374.5 L 203.5 368 L 184 351.5 L 176 339.5 L 176.5 338 Z " /><path fill="rgb(188,188,188)" stroke="rgb(188,188,188)" stroke-width="1" opacity="0.21568627450980393" d="M 212.5 376 L 216 378.5 Q 215.3 380.8 217.5 380 L 220 383.5 L 219 383.5 L 217.5 381 L 215 379.5 Q 215.8 377.3 213.5 378 L 212.5 376 Z " /><path fill="rgb(188,188,188)" stroke="rgb(188,188,188)" stroke-width="1" opacity="0.21568627450980393" d="M 223.5 385 L 231 389.5 L 229.5 390 Q 224.3 388.2 223.5 385 Z " /><path fill="rgb(188,188,188)" stroke="rgb(188,188,188)" stroke-width="1" opacity="0.21568627450980393" d="M 232.5 390 L 235 390.5 L 232.5 391 L 232.5 390 Z " /><path fill="rgb(188,188,188)" stroke="rgb(188,188,188)" stroke-width="1" opacity="0.21568627450980393" d="M 375.5 390 L 377 390.5 L 371.5 394 L 371.5 393 L 375.5 390 Z " /><path fill="rgb(188,188,188)" stroke="rgb(188,188,188)" stroke-width="1" opacity="0.21568627450980393" d="M 238.5 392 L 242 393.5 L 240.5 394 L 238.5 392 Z " /><path fill="rgb(188,188,188)" stroke="rgb(188,188,188)" stroke-width="1" opacity="0.21568627450980393" d="M 243.5 394 L 254.5 394 L 257 395.5 L 255.5 396 L 254.5 395 L 243.5 395 L 243.5 394 Z " /><path fill="rgb(188,188,188)" stroke="rgb(188,188,188)" stroke-width="1" opacity="0.21568627450980393" d="M 366.5 394 L 370 394.5 L 364.5 396 L 364.5 395 L 366.5 394 Z " /><path fill="rgb(188,188,188)" stroke="rgb(188,188,188)" stroke-width="1" opacity="0.21568627450980393" d="M 258.5 396 L 363 396.5 L 258.5 397 L 258.5 396 Z " /><path fill="rgb(255,255,255)" stroke="rgb(255,255,255)" stroke-width="1" opacity="1" d="M 275.5 72 L 274.5 74 L 275.5 72 Z " /><path fill="rgb(255,255,255)" stroke="rgb(255,255,255)" stroke-width="1" opacity="1" d="M 334.5 74 L 336.5 77 L 334.5 74 Z " /><path fill="rgb(255,255,255)" stroke="rgb(255,255,255)" stroke-width="1" opacity="1" d="M 249.5 77 L 248.5 79 L 249.5 77 Z " /><path fill="rgb(255,255,255)" stroke="rgb(255,255,255)" stroke-width="1" opacity="1" d="M 338.5 77 L 341.5 81 L 338.5 77 Z " /><path fill="rgb(255,255,255)" stroke="rgb(255,255,255)" stroke-width="1" opacity="1" d="M 240.5 79 L 239.5 81 L 240.5 79 Z " /><path fill="rgb(255,255,255)" stroke="rgb(255,255,255)" stroke-width="1" opacity="1" d="M 236.5 81 L 235.5 83 L 236.5 81 Z " /><path fill="rgb(255,255,255)" stroke="rgb(255,255,255)" stroke-width="1" opacity="1" d="M 230.5 83 L 229.5 85 L 230.5 83 Z " /><path fill="rgb(255,255,255)" stroke="rgb(255,255,255)" stroke-width="1" opacity="1" d="M 343.5 83 L 345.5 86 L 343.5 83 Z " /><path fill="rgb(255,255,255)" stroke="rgb(255,255,255)" stroke-width="1" opacity="1" d="M 225.5 85 L 223.5 88 L 225.5 85 Z " /><path fill="rgb(255,255,255)" stroke="rgb(255,255,255)" stroke-width="1" opacity="1" d="M 312.5 85 L 319.5 85 L 326 88.5 L 327.5 91 L 330 92.5 L 331.5 95 L 335 96 L 344 108.5 L 348 118.5 L 352 123.5 L 352 127.5 L 357 135.5 L 357 140.5 L 359 142.5 L 359 147.5 L 361 149.5 Q 359.8 156.2 363 158.5 L 363 164.5 L 367 174.5 L 368 190.5 L 370 192.5 L 370 204.5 L 372 207.5 L 372 234.5 L 374 236.5 L 374 245.5 L 378 250.5 L 378 264.5 L 380 267.5 L 381 317.5 L 384.5 322 L 390 323.5 L 389 324.5 L 389 335.5 L 387 337.5 L 387 346.5 Q 384 347.5 385 352.5 L 376 370.5 L 368.5 378 L 364.5 380 L 359.5 380 L 357.5 382 L 283.5 382 L 282.5 383 L 281.5 382 L 263.5 382 L 261.5 380 L 248.5 380 L 241.5 376 L 236.5 376 L 197 343 L 190 332.5 L 190 328.5 L 186 322.5 L 186 309.5 L 184 307.5 L 184 273.5 L 182 270.5 L 182 255.5 L 180 253.5 L 179 229.5 L 177 227.5 Q 178.4 220.1 175 217.5 L 184 199.5 L 184 196.5 L 190 186.5 L 190 183.5 L 196 175.5 L 203 160.5 L 204 154.5 L 210 140.5 L 210 128.5 Q 213.6 125.6 212 117.5 L 220.5 107 L 242.5 96 L 254.5 93 L 260.5 89 L 277.5 89 L 280.5 87 L 309.5 87 L 312.5 85 Z M 245 112 L 239 118 L 239 187 L 237 190 L 237 218 L 239 221 L 244 223 L 249 222 L 252 218 L 252 194 L 254 191 L 254 118 L 253 115 L 249 112 L 245 112 Z " /><path fill="rgb(255,255,255)" stroke="rgb(255,255,255)" stroke-width="1" opacity="1" d="M 352.5 94 L 353.5 96 L 352.5 94 Z " /><path fill="rgb(255,255,255)" stroke="rgb(255,255,255)" stroke-width="1" opacity="1" d="M 209.5 95 L 201.5 104 L 209.5 95 Z " /><path fill="rgb(255,255,255)" stroke="rgb(255,255,255)" stroke-width="1" opacity="1" d="M 358.5 104 L 359.5 106 L 358.5 104 Z " /><path fill="rgb(255,255,255)" stroke="rgb(255,255,255)" stroke-width="1" opacity="1" d="M 199.5 107 L 197.5 110 L 199.5 107 Z " /><path fill="rgb(255,255,255)" stroke="rgb(255,255,255)" stroke-width="1" opacity="1" d="M 362.5 111 L 364.5 114 L 362.5 111 Z " /><path fill="rgb(255,255,255)" stroke="rgb(255,255,255)" stroke-width="1" opacity="1" d="M 196.5 119 L 195.5 121 L 196.5 119 Z " /><path fill="rgb(255,255,255)" stroke="rgb(255,255,255)" stroke-width="1" opacity="1" d="M 194.5 134 L 193.5 136 L 194.5 134 Z " /><path fill="rgb(255,255,255)" stroke="rgb(255,255,255)" stroke-width="1" opacity="1" d="M 192.5 143 L 191.5 145 L 192.5 143 Z " /><path fill="rgb(255,255,255)" stroke="rgb(255,255,255)" stroke-width="1" opacity="1" d="M 190.5 147 L 189.5 149 L 190.5 147 Z " /><path fill="rgb(255,255,255)" stroke="rgb(255,255,255)" stroke-width="1" opacity="1" d="M 185.5 160 L 184.5 162 L 185.5 160 Z " /><path fill="rgb(255,255,255)" stroke="rgb(255,255,255)" stroke-width="1" opacity="1" d="M 183.5 165 L 180.5 169 L 183.5 165 Z " /><path fill="rgb(255,255,255)" stroke="rgb(255,255,255)" stroke-width="1" opacity="1" d="M 172.5 184 L 171.5 186 L 172.5 184 Z " /><path fill="rgb(255,255,255)" stroke="rgb(255,255,255)" stroke-width="1" opacity="1" d="M 166.5 198 L 165.5 200 L 166.5 198 Z " /><path fill="rgb(255,255,255)" stroke="rgb(255,255,255)" stroke-width="1" opacity="1" d="M 163.5 206 L 162.5 208 L 163.5 206 Z " /><path fill="rgb(255,255,255)" stroke="rgb(255,255,255)" stroke-width="1" opacity="1" d="M 148.5 229 L 147.5 231 L 148.5 229 Z " /><path fill="rgb(255,255,255)" stroke="rgb(255,255,255)" stroke-width="1" opacity="1" d="M 97.5 247 L 96.5 249 L 97.5 247 Z " /><path fill="rgb(255,255,255)" stroke="rgb(255,255,255)" stroke-width="1" opacity="1" d="M 66.5 253 L 64.5 256 L 66.5 253 Z " /><path fill="rgb(255,255,255)" stroke="rgb(255,255,255)" stroke-width="1" opacity="1" d="M 55.5 256 L 54.5 258 L 55.5 256 Z " /><path fill="rgb(255,255,255)" stroke="rgb(255,255,255)" stroke-width="1" opacity="1" d="M 41.5 270 L 38.5 274 L 41.5 270 Z " /><path fill="rgb(255,255,255)" stroke="rgb(255,255,255)" stroke-width="1" opacity="1" d="M 38.5 281 L 39.5 283 L 38.5 281 Z " /><path fill="rgb(255,255,255)" stroke="rgb(255,255,255)" stroke-width="1" opacity="1" d="M 61.5 309 L 62.5 311 L 61.5 309 Z " /><path fill="rgb(255,255,255)" stroke="rgb(255,255,255)" stroke-width="1" opacity="1" d="M 402.5 310 L 405.5 314 L 402.5 310 Z " /><path fill="rgb(255,255,255)" stroke="rgb(255,255,255)" stroke-width="1" opacity="1" d="M 182.5 349 L 183.5 351 L 182.5 349 Z " /><path fill="rgb(255,255,255)" stroke="rgb(255,255,255)" stroke-width="1" opacity="1" d="M 210.5 375 L 211.5 377 L 210.5 375 Z " /><path fill="rgb(249,237,0)" stroke="rgb(249,237,0)" stroke-width="1" opacity="0.996078431372549" d="M 173 220 L 175 220 L 175 229.5 L 177 230.5 L 177 242.5 L 178 243.5 L 178 256 L 180 256.5 L 180 272 L 75.5 272 Q 74.3 269.3 70 269.5 L 74.5 267 L 80.5 267 L 91.5 263 L 102.5 263 L 113.5 259 L 121.5 259 L 124.5 257 L 139.5 256 L 153 245.5 Q 152.3 243.3 154.5 244 L 164 234.5 L 173 220 Z " /><path fill="rgb(249,237,0)" stroke="rgb(249,237,0)" stroke-width="1" opacity="0.996078431372549" d="M 58 283 L 68.5 283 L 71.5 285 L 180.5 285 L 182 284.5 L 181.5 306 L 180.5 305 L 90.5 304 L 88.5 302 L 80.5 302 L 75.5 300 L 65 292.5 L 58 283 Z " /></svg>